<?xml version="1.0" encoding="UTF-8"?>
<svg xmlns="http://www.w3.org/2000/svg" width="24" height="24" viewBox="0 0 24 24">
    <g fill="none" fill-rule="evenodd" transform="translate(3 3)">
        <circle cx="9" cy="9" r="8" fill="#EBAC8C" stroke="#D7591A" stroke-width="2"/>
        <path fill="#D7591A" d="M14.3333333,8.08333333 C14.3333333,7.66927083 13.9973958,7.33333333 13.5833333,7.33333333 L10.3333333,7.33333333 L10.3333333,4.08333333 C10.3333333,3.66927083 9.99739583,3.33333333 9.58333333,3.33333333 L8.08333333,3.33333333 C7.66927083,3.33333333 7.33333333,3.66927083 7.33333333,4.08333333 L7.33333333,7.33333333 L4.08333333,7.33333333 C3.66927083,7.33333333 3.33333333,7.66927083 3.33333333,8.08333333 L3.33333333,9.58333333 C3.33333333,9.99739583 3.66927083,10.3333333 4.08333333,10.3333333 L7.33333333,10.3333333 L7.33333333,13.5833333 C7.33333333,13.9973958 7.66927083,14.3333333 8.08333333,14.3333333 L9.58333333,14.3333333 C9.99739583,14.3333333 10.3333333,13.9973958 10.3333333,13.5833333 L10.3333333,10.3333333 L13.5833333,10.3333333 C13.9973958,10.3333333 14.3333333,9.99739583 14.3333333,9.58333333 L14.3333333,8.08333333 Z"/>
    </g>
</svg>
