<?xml version="1.0" encoding="UTF-8"?>
<svg width="24px" height="24px" viewBox="0 0 24 24" version="1.1" xmlns="http://www.w3.org/2000/svg" xmlns:xlink="http://www.w3.org/1999/xlink">
    <!-- Generator: Sketch 58 (84663) - https://sketch.com -->
    <title>icon /  defer / A</title>
    <desc>Created with Sketch.</desc>
    <g id="icon-/--defer-/-A" stroke="none" stroke-width="1" fill="none" fill-rule="evenodd">
        <g id="defer-copy-2">
            <path d="M20.1428776,11.5714388 C20.1428776,6.83929029 16.3035873,3 11.5714388,3 C6.83929029,3 3,6.83929029 3,11.5714388 C3,16.3035873 6.83929029,20.1428776 11.5714388,20.1428776 C16.3035873,20.1428776 20.1428776,16.3035873 20.1428776,11.5714388 L20.1428776,11.5714388 Z" id="Path-Copy" fill="#FBFBFD"></path>
            <path d="M13.5,7.875 C13.5,7.6640625 13.3359375,7.5 13.125,7.5 L12.375,7.5 C12.1640625,7.5 12,7.6640625 12,7.875 L12,12 L9.375,12 C9.1640625,12 9,12.1640625 9,12.375 L9,13.125 C9,13.3359375 9.1640625,13.5 9.375,13.5 L13.125,13.5 C13.3359375,13.5 13.5,13.3359375 13.5,13.125 L13.5,7.875 Z M18.375,12 C18.375,15.515625 15.515625,18.375 12,18.375 C8.484375,18.375 5.625,15.515625 5.625,12 C5.625,8.484375 8.484375,5.625 12,5.625 C15.515625,5.625 18.375,8.484375 18.375,12 L18.375,12 Z M21,12 C21,7.03125 16.96875,3 12,3 C7.03125,3 3,7.03125 3,12 C3,16.96875 7.03125,21 12,21 C16.96875,21 21,16.96875 21,12 L21,12 Z" id="clock-o---FontAwesome-Copy-2" fill="#389BFF"></path>
        </g>
    </g>
</svg>
