<?xml version="1.0" encoding="UTF-8"?>
<svg width="24px" height="24px" viewBox="0 0 24 24" version="1.1" xmlns="http://www.w3.org/2000/svg" xmlns:xlink="http://www.w3.org/1999/xlink">
    <!-- Generator: Sketch 58 (84663) - https://sketch.com -->
    <title>icon /  filter</title>
    <desc>Created with Sketch.</desc>
    <g id="icon-/--filter" stroke="none" stroke-width="1" fill="none" fill-rule="evenodd">
        <g id="filter_new_copy">
            <path d="M17.9570676,6.33236858 C17.8718449,6.13635634 17.6758327,6 17.4542536,6 L6.54574638,6 C6.32416733,6 6.12815509,6.13635634 6.04293238,6.33236858 C5.95770966,6.53690309 6.00032102,6.77552669 6.16224417,6.92892757 L10.3637239,11.1304073 L10.3637239,15.2722312 C10.3637239,15.4171098 10.4233798,15.5534661 10.5256471,15.6557334 L12.7073485,17.8374348 C12.8096158,17.9482243 12.9459721,17.999358 13.0908507,17.999358 C13.1590289,17.999358 13.2357293,17.9823134 13.3039075,17.9567466 C13.4999197,17.8715239 13.6362761,17.6755117 13.6362761,17.4539326 L13.6362761,11.1304073 L17.8377558,6.92892757 C17.999679,6.77552669 18.0422903,6.53690309 17.9570676,6.33236858 L17.9570676,6.33236858 Z" id="filter---FontAwesome" fill="#FFFFFF"></path>
        </g>
    </g>
</svg>
