<?xml version="1.0" encoding="UTF-8"?>
<svg width="24px" height="24px" viewBox="0 0 24 24" version="1.1" xmlns="http://www.w3.org/2000/svg" xmlns:xlink="http://www.w3.org/1999/xlink">
    <!-- Generator: Sketch 58 (84663) - https://sketch.com -->
    <title>icon /  loop</title>
    <desc>Created with Sketch.</desc>
    <g id="icon-/--loop" stroke="none" stroke-width="1" fill="none" fill-rule="evenodd">
        <path d="M8.66009916,1.88388481 L1.88388481,8.66009916 C0.0385363663,10.5054476 0.0388737574,13.4948898 1.88388481,15.3399008 L8.66009916,22.1161152 C10.5054476,23.9614636 13.4948898,23.9611262 15.3399008,22.1161152 L22.1161152,15.3399008 C23.9614636,13.4945524 23.9611262,10.5051102 22.1161152,8.66009916 L15.3399008,1.88388481 C13.4945524,0.0385363663 10.5051102,0.0388737574 8.66009916,1.88388481 Z" id="Rectangle-8" stroke="#F5A623" fill="#FAD290"></path>
        <path d="M12.0000001,7.50000002 C14.5775955,7.50000002 16.6666667,9.58889605 16.6666667,12.1666667 C16.6666666,14.7445575 14.5793662,16.8333334 12.0033662,16.8333334 L12.0033662,19.1666667 L12.0374263,18.0000001 L12.0374263,16.8333334 C9.46195172,16.8333334 7.37412588,14.7439093 7.37412588,12.1651602 L7.37412588,11.3797311 L5.04079254,11.3797311 L5.04079254,12.1651602 C5.04079254,16.0321742 8.17288743,19.1666667 12.0374263,19.1666667 L12.0374263,16.8333334 L12.0033662,18.0000001 L12.0033662,19.1666667 C15.8683998,19.1666667 18.9999999,16.032853 19,12.1666667 C19.0000001,8.30018783 15.8662161,5.16666667 12.0000001,5.16666667 L10.8888889,5.16666667 L11.2777778,3 L5,6.33333334 L11.2777778,9.66666669 L10.8888889,7.50000002 L12.0000001,7.50000002 Z" id="loop_line" fill="#D7591A" fill-rule="nonzero"></path>
    </g>
</svg>
