<?xml version="1.0" encoding="UTF-8"?>
<svg width="24px" height="24px" viewBox="0 0 24 24" version="1.1" xmlns="http://www.w3.org/2000/svg" xmlns:xlink="http://www.w3.org/1999/xlink">
    <!-- Generator: Sketch 58 (84663) - https://sketch.com -->
    <title>icon /  routine</title>
    <desc>Created with Sketch.</desc>
    <g id="icon-/--routine" stroke="none" stroke-width="1" fill="none" fill-rule="evenodd">
        <path d="M15.3399008,1.88388481 C13.4945524,0.0385363663 10.5051102,0.0388737574 8.66009916,1.88388481 L1.88388481,8.66009916 C0.0385363663,10.5054476 0.0388737574,13.4948898 1.88388481,15.3399008 L8.66009916,22.1161152 C10.5054476,23.9614636 13.4948898,23.9611262 15.3399008,22.1161152 L22.1161152,15.3399008 C23.9614636,13.4945524 23.9611262,10.5051102 22.1161152,8.66009916 L15.3399008,1.88388481 Z" id="Rectangle-8" stroke="#417505" fill="#D9E3CD"></path>
        <path d="M17.750014,15.4999994 C17.750014,15.3671867 17.6953264,15.2421866 17.6015763,15.1484365 L14.4609476,11.9999952 L16.2500122,11.9999952 C16.52345,11.9999952 16.7500128,11.7734325 16.7500128,11.4999946 C16.7500128,11.367182 16.6953252,11.2421818 16.6015751,11.1484317 L13.4609464,7.99999046 L15.0000107,7.99999046 C15.2734486,7.99999046 15.5000113,7.77342769 15.5000113,7.49998987 C15.5000113,7.36717721 15.4453238,7.24217706 15.3515736,7.14842695 L12.3515701,4.14842337 C12.25782,4.05467326 12.1328198,3.99998569 12.0000072,3.99998569 C11.8671945,3.99998569 11.7421943,4.05467326 11.6484442,4.14842337 L8.64844066,7.14842695 C8.55469055,7.24217706 8.50000298,7.36717721 8.50000298,7.49998987 C8.50000298,7.77342769 8.72656575,7.99999046 9.00000358,7.99999046 L10.5390679,7.99999046 L7.39843917,11.1484317 C7.30468906,11.2421818 7.25000149,11.367182 7.25000149,11.4999946 C7.25000149,11.7734325 7.47656426,11.9999952 7.75000209,11.9999952 L9.53906672,11.9999952 L6.39843797,15.1484365 C6.30468786,15.2421866 6.2500003,15.3671867 6.2500003,15.4999994 C6.2500003,15.7734372 6.47656307,16 6.75000089,16 L10.3593802,16 C10.3359427,16.5000006 10.2734426,17.0234387 10.2734426,17.5312518 C10.2734426,17.7890646 10.4843803,18.0000024 10.7500057,18.0000024 L13.2500086,18.0000024 C13.515634,18.0000024 13.7265717,17.7890646 13.7265717,17.5312518 C13.7265717,17.0234387 13.6640716,16.5000006 13.6406341,16 L17.2500134,16 C17.5234512,16 17.750014,15.7734372 17.750014,15.4999994 L17.750014,15.4999994 Z" id="tree---FontAwesome" fill="#417505"></path>
    </g>
</svg>