<?xml version="1.0" encoding="UTF-8"?>
<svg width="27px" height="28px" viewBox="0 0 27 28" version="1.1" xmlns="http://www.w3.org/2000/svg" xmlns:xlink="http://www.w3.org/1999/xlink">
    <!-- Generator: Sketch 58 (84663) - https://sketch.com -->
    <title>icon / scale-plus</title>
    <desc>Created with Sketch.</desc>
    <g id="icon-/-scale-plus" stroke="none" stroke-width="1" fill="none" fill-rule="evenodd">
        <g id="plus">
            <rect id="Rectangle" fill="#7E8083" x="0" y="0" width="27" height="28"></rect>
            <g id="scale-plus" transform="translate(6.000000, 6.000000)" fill="#FFFFFF">
                <path d="M15.7143044,7.07141793 C15.7143044,6.47989937 15.2343932,5.99998808 14.6428746,5.99998808 L10.0000119,5.99998808 L10.0000119,1.3571254 C10.0000119,0.765606839 9.52010063,0.285695553 8.92858207,0.285695553 L6.78572237,0.285695553 C6.19420381,0.285695553 5.71429253,0.765606839 5.71429253,1.3571254 L5.71429253,5.99998808 L1.07142985,5.99998808 C0.479911286,5.99998808 0,6.47989937 0,7.07141793 L0,9.21427763 C0,9.80579619 0.479911286,10.2857075 1.07142985,10.2857075 L5.71429253,10.2857075 L5.71429253,14.9285702 C5.71429253,15.5200887 6.19420381,16 6.78572237,16 L8.92858207,16 C9.52010063,16 10.0000119,15.5200887 10.0000119,14.9285702 L10.0000119,10.2857075 L14.6428746,10.2857075 C15.2343932,10.2857075 15.7143044,9.80579619 15.7143044,9.21427763 L15.7143044,7.07141793 Z" id="ï§"></path>
            </g>
        </g>
    </g>
</svg>