<?xml version="1.0" encoding="UTF-8"?>
<svg width="30px" height="30px" viewBox="0 0 30 30" version="1.1" xmlns="http://www.w3.org/2000/svg" xmlns:xlink="http://www.w3.org/1999/xlink">
    <!-- Generator: Sketch 58 (84663) - https://sketch.com -->
    <title>icon /  start</title>
    <desc>Created with Sketch.</desc>
    <g id="icon-/--start" stroke="none" stroke-width="1" fill="none" fill-rule="evenodd">
        <g id="start" fill="#4AA44B">
            <circle id="Oval" stroke="#4AA44B" stroke-width="2" fill-opacity="0.5" cx="15" cy="15" r="14"></circle>
            <path d="M20.3333333,15.0833333 C20.3333333,14.6692708 19.9973958,14.3333333 19.5833333,14.3333333 L16.3333333,14.3333333 L16.3333333,11.0833333 C16.3333333,10.6692708 15.9973958,10.3333333 15.5833333,10.3333333 L14.0833333,10.3333333 C13.6692708,10.3333333 13.3333333,10.6692708 13.3333333,11.0833333 L13.3333333,14.3333333 L10.0833333,14.3333333 C9.66927083,14.3333333 9.33333333,14.6692708 9.33333333,15.0833333 L9.33333333,16.5833333 C9.33333333,16.9973958 9.66927083,17.3333333 10.0833333,17.3333333 L13.3333333,17.3333333 L13.3333333,20.5833333 C13.3333333,20.9973958 13.6692708,21.3333333 14.0833333,21.3333333 L15.5833333,21.3333333 C15.9973958,21.3333333 16.3333333,20.9973958 16.3333333,20.5833333 L16.3333333,17.3333333 L19.5833333,17.3333333 C19.9973958,17.3333333 20.3333333,16.9973958 20.3333333,16.5833333 L20.3333333,15.0833333 Z" id="plus---FontAwesome"></path>
        </g>
    </g>
</svg>